<svg version="1.1" xmlns="http://www.w3.org/2000/svg" xmlns:xlink="http://www.w3.org/1999/xlink" width="512.000000pt" height="512.000000pt" viewBox="0,0,256,256"><g fill="#ffffff" fill-rule="nonzero" stroke="none" stroke-width="1" stroke-linecap="butt" stroke-linejoin="miter" stroke-miterlimit="10" stroke-dasharray="" stroke-dashoffset="0" font-family="none" font-weight="none" font-size="none" text-anchor="none" style="mix-blend-mode: normal"><g transform="translate(-0.11582,-0.14453) scale(0.5,0.5)"><g transform="translate(0,512) scale(0.1,-0.1)"><path d="M235,4036c-93,-29 -152,-77 -195,-158c-31,-57 -34,-71 -34,-150l-1,-86l122,-244c258,-512 519,-913 833,-1278c113,-132 391,-408 525,-521c200,-168 516,-394 642,-458c204,-102 462,-100 668,7c90,46 210,164 247,243c42,86 47,128 48,337c0,207 7,245 51,276c29,20 88,21 115,1c12,-8 164,-197 340,-420c175,-224 338,-424 362,-445c82,-73 98,-75 522,-75c433,0 442,1 534,86c62,56 96,125 103,209c11,114 5,123 -381,659c-194,270 -357,502 -360,516c-4,14 0,39 7,57c8,18 167,246 355,505c190,264 348,494 359,520c26,68 24,174 -5,236c-34,75 -75,121 -144,158l-63,34h-405h-405l-50,-24c-27,-14 -68,-43 -90,-66c-22,-23 -173,-259 -339,-531c-164,-269 -311,-501 -327,-516c-34,-33 -91,-38 -128,-12c-49,35 -51,54 -51,488c0,383 -1,408 -20,460c-27,72 -85,135 -156,171l-59,30h-505h-505l-56,-26c-118,-55 -184,-160 -184,-289c0,-57 6,-87 23,-125c27,-59 92,-129 145,-156l37,-19v-219c0,-190 -2,-220 -16,-225c-9,-3 -17,-6 -20,-6c-7,0 -151,186 -201,260c-103,154 -208,354 -294,560c-54,131 -119,199 -222,234c-41,14 -101,16 -415,15c-265,0 -378,-4 -407,-13zM1028,3807c15,-15 39,-53 52,-85c42,-102 148,-321 201,-415c67,-117 200,-310 282,-407c83,-99 130,-125 223,-125c61,0 77,4 120,30c55,34 107,111 118,172c3,21 6,174 6,339v301l-72,5c-40,3 -83,11 -95,18c-64,40 -61,146 5,181c20,11 115,14 477,14c483,0 490,-1 518,-50c9,-14 13,-148 17,-450c5,-414 6,-432 27,-477c99,-216 377,-260 530,-84c21,24 174,267 341,538c167,272 313,501 325,509c18,11 84,15 342,17c176,2 339,1 362,-3c68,-10 111,-69 94,-131c-3,-13 -159,-236 -346,-495c-187,-259 -350,-491 -363,-515c-13,-25 -25,-72 -29,-108c-11,-121 -9,-124 381,-665c195,-271 357,-504 361,-520c8,-36 -7,-73 -41,-100c-26,-21 -35,-21 -383,-21c-296,0 -360,2 -377,15c-12,8 -165,197 -340,421c-175,223 -338,424 -362,445c-115,101 -298,96 -416,-12c-91,-83 -99,-113 -106,-384c-6,-261 -9,-273 -85,-353c-86,-93 -216,-138 -374,-130c-125,7 -176,27 -334,132c-649,430 -1145,967 -1557,1682c-113,196 -308,582 -311,615c-6,62 25,112 74,122c12,3 176,4 364,3l342,-1z"></path></g></g></g></svg>