<svg version="1.1" xmlns="http://www.w3.org/2000/svg" xmlns:xlink="http://www.w3.org/1999/xlink" width="50.000000pt" height="50.000000pt" viewBox="0,0,256,256"><g fill="#98205e" fill-rule="nonzero" stroke="none" stroke-width="1" stroke-linecap="butt" stroke-linejoin="miter" stroke-miterlimit="10" stroke-dasharray="" stroke-dashoffset="0" font-family="none" font-weight="none" font-size="none" text-anchor="none" style="mix-blend-mode: normal"><g transform="translate(1.2622,0) scale(5.12,5.12)"><g transform="translate(0,50) scale(0.1,-0.1)"><path d="M133,363l137,-135l82,81l82,81l-54,55c-30,30 -61,55 -69,55c-10,0 -5,-10 15,-31c63,-66 29,-179 -55,-179c-31,0 -46,10 -123,87c-49,48 -88,95 -88,104c0,11 -10,16 -32,17c-31,1 -26,-5 105,-135zM395,392c0,-18 -20,-15 -23,4c-3,10 1,15 10,12c7,-3 13,-10 13,-16z"></path><path d="M141,472c-13,-31 -7,-75 13,-92c7,-5 27,-13 44,-16c27,-5 37,-1 67,29c34,34 42,58 29,91c-3,9 -13,16 -22,16c-12,0 -13,-3 -4,-12c42,-42 -34,-127 -88,-98c-28,15 -36,55 -16,85c13,20 14,25 2,25c-7,0 -19,-13 -25,-28z"></path><path d="M110,325c58,-94 61,-97 84,-80c16,12 17,17 6,30c-7,8 -20,15 -29,15c-9,0 -24,12 -33,28c-9,15 -29,38 -43,52c-24,21 -21,14 15,-45z"></path><path d="M282,378c-16,-16 -15,-33 3,-48c12,-10 18,-10 30,0c20,17 19,37 -3,49c-13,7 -23,6 -30,-1zM310,350c0,-5 -4,-10 -10,-10c-5,0 -10,5 -10,10c0,6 5,10 10,10c6,0 10,-4 10,-10z"></path><path d="M125,210c-3,-5 -12,-7 -20,-3c-8,3 -23,2 -32,-2c-10,-4 -26,-9 -36,-10c-25,-3 -41,-21 -34,-39c8,-21 214,-156 238,-156c10,0 48,15 84,32c55,28 68,31 85,20c31,-19 47,-13 21,8c-32,27 -52,25 -114,-10c-30,-16 -62,-30 -73,-30c-25,0 -219,132 -214,145c7,15 28,7 91,-36c50,-33 66,-39 111,-39c29,0 63,3 76,6c43,12 21,20 -53,19c-82,0 -102,16 -34,27c23,4 59,19 79,33c44,30 73,31 136,5c68,-29 80,-17 14,14c-70,33 -107,33 -156,0l-39,-26l-46,26c-49,27 -74,32 -84,16zM195,180c27,-18 28,-20 9,-20c-12,0 -32,9 -45,20c-32,26 -4,27 36,0zM131,173c30,-18 38,-33 17,-33c-18,0 -76,49 -60,50c8,0 27,-8 43,-17z"></path></g></g></g></svg>