<svg version="1.1" xmlns="http://www.w3.org/2000/svg" xmlns:xlink="http://www.w3.org/1999/xlink" width="50.000000pt" height="50.000000pt" viewBox="0,0,256,256"><g fill="#98205e" fill-rule="nonzero" stroke="none" stroke-width="1" stroke-linecap="butt" stroke-linejoin="miter" stroke-miterlimit="10" stroke-dasharray="" stroke-dashoffset="0" font-family="none" font-weight="none" font-size="none" text-anchor="none" style="mix-blend-mode: normal"><g transform="translate(-0.416,-7.79278) scale(5.12,5.12)"><g transform="translate(0,50) scale(0.1,-0.1)"><path d="M5,407c-3,-7 -4,-78 -3,-157l3,-145l30,-3c16,-2 39,-15 52,-28c28,-31 58,-31 87,1c20,22 32,25 91,25c59,0 71,-3 91,-25c32,-34 55,-31 103,13c39,37 41,41 41,99c0,56 -3,65 -40,112c-40,50 -41,51 -95,51c-53,0 -54,0 -57,33l-3,32l-148,3c-115,2 -149,0 -152,-11zM290,260v-140h-46c-37,0 -52,5 -70,25c-29,32 -59,32 -88,0c-13,-14 -33,-25 -45,-25c-20,0 -21,4 -21,140v140h135h135zM360,282c0,-26 5,-53 12,-60c7,-7 34,-12 60,-12h48v-45c0,-25 -3,-45 -6,-45c-4,0 -17,11 -30,25c-29,32 -59,32 -88,0c-40,-43 -46,-34 -46,80v105h25c23,0 25,-3 25,-48zM427,308c11,-13 28,-35 38,-50l17,-28h-51h-51v50c0,56 14,64 47,28zM160,135c26,-32 -13,-81 -47,-59c-10,6 -19,19 -21,28c-8,38 43,61 68,31zM430,135c26,-32 -13,-81 -47,-59c-23,14 -28,41 -13,59c16,19 44,19 60,0z"></path><path d="M101,366c-87,-48 -50,-186 49,-186c51,0 100,49 100,99c0,75 -83,124 -149,87zM205,335c33,-32 33,-78 0,-110c-32,-33 -78,-33 -110,0c-50,49 -15,135 55,135c19,0 40,-9 55,-25z"></path><path d="M140,310c0,-18 -6,-33 -15,-36c-8,-4 -15,-13 -15,-20c0,-12 4,-12 25,2c19,12 25,25 25,50c0,19 -4,34 -10,34c-5,0 -10,-14 -10,-30z"></path></g></g></g></svg>