<svg version="1.1" xmlns="http://www.w3.org/2000/svg" xmlns:xlink="http://www.w3.org/1999/xlink" width="50.000000pt" height="50.000000pt" viewBox="0,0,256,256"><g fill="#98205e" fill-rule="nonzero" stroke="none" stroke-width="1" stroke-linecap="butt" stroke-linejoin="miter" stroke-miterlimit="10" stroke-dasharray="" stroke-dashoffset="0" font-family="none" font-weight="none" font-size="none" text-anchor="none" style="mix-blend-mode: normal"><g transform="translate(0,0)"><g><g transform="translate(-0.04268,-10.89736) scale(5.12,5.12)"><g transform="translate(0,50) scale(0.1,-0.1)"><path d="M93,415c-38,-16 -62,-50 -70,-98c-12,-78 39,-158 150,-235l77,-53l47,32c93,63 132,101 158,152c28,58 31,93 11,142c-28,65 -111,92 -178,57c-37,-20 -39,-20 -75,-1c-44,22 -76,23 -120,4zM215,384l38,-25l22,21c31,29 84,36 123,16c66,-34 79,-119 29,-195c-27,-41 -152,-141 -176,-141c-24,0 -157,106 -180,144c-46,73 -36,151 23,187c42,26 76,24 121,-7z"></path></g></g></g></g></g></svg>