<svg version="1.1" xmlns="http://www.w3.org/2000/svg" xmlns:xlink="http://www.w3.org/1999/xlink" width="48.000000pt" height="48.000000pt" viewBox="0,0,256,256"><g fill="#ffffff" fill-rule="nonzero" stroke="none" stroke-width="1" stroke-linecap="butt" stroke-linejoin="miter" stroke-miterlimit="10" stroke-dasharray="" stroke-dashoffset="0" font-family="none" font-weight="none" font-size="none" text-anchor="none" style="mix-blend-mode: normal"><g transform="translate(0.45999,8.0601) scale(5.33333,5.33333)"><g transform="translate(0,48) scale(0.1,-0.1)"><path d="M171,415c-45,-41 -51,-42 -74,-15c-20,24 -77,28 -77,6c0,-9 12,-16 28,-18c26,-3 28,-7 47,-105c28,-142 29,-143 175,-143c145,0 150,4 174,135c20,112 21,105 -10,105c-15,0 -41,13 -61,30c-37,33 -45,35 -74,20c-14,-8 -25,-7 -41,5c-32,22 -43,19 -87,-20zM255,400c18,-20 17,-20 -30,-20c-47,0 -48,0 -30,20c10,11 23,20 30,20c7,0 20,-9 30,-20zM336,382c-22,-5 -30,3 -21,18c5,8 11,7 22,-2c15,-12 14,-13 -1,-16zM412,273c-8,-43 -19,-84 -25,-90c-13,-18 -221,-18 -234,0c-6,6 -17,47 -25,90l-15,77h157h157z"></path><path d="M174,106c-10,-26 4,-48 28,-44c33,4 33,52 0,56c-13,2 -25,-3 -28,-12z"></path><path d="M314,106c-10,-26 4,-48 28,-44c33,4 33,52 0,56c-13,2 -25,-3 -28,-12z"></path></g></g></g></svg>