<svg version="1.1" xmlns="http://www.w3.org/2000/svg" xmlns:xlink="http://www.w3.org/1999/xlink" width="50.000000pt" height="50.000000pt" viewBox="0,0,256,256"><g fill="#98205e" fill-rule="nonzero" stroke="none" stroke-width="1" stroke-linecap="butt" stroke-linejoin="miter" stroke-miterlimit="10" stroke-dasharray="" stroke-dashoffset="0" font-family="none" font-weight="none" font-size="none" text-anchor="none" style="mix-blend-mode: normal"><g transform="translate(-0.00088,3.35104) scale(5.12,5.12)"><g transform="translate(0,50) scale(0.1,-0.1)"><path d="M165,396c-33,-12 -158,-102 -163,-117c-7,-18 13,-8 80,41c38,28 71,50 73,50c3,0 5,-29 5,-64c0,-42 -4,-66 -12,-69c-7,-2 -10,-8 -6,-12c4,-5 40,7 79,25c49,22 74,29 81,22c16,-16 3,-39 -34,-58c-18,-9 -45,-28 -60,-42c-28,-26 -85,-40 -165,-41c-24,-1 -43,-5 -43,-11c0,-12 65,-12 133,-1c27,5 50,4 53,-1c3,-5 16,-8 27,-6c12,1 27,-1 34,-5c6,-4 31,-4 54,-1c32,5 46,14 58,35c14,26 21,29 67,29c27,0 55,5 62,12c8,8 12,46 12,104c0,127 3,124 -168,123c-75,-1 -150,-7 -167,-13zM478,373c3,-10 -31,-13 -147,-13c-139,0 -164,4 -144,24c4,3 70,5 147,4c100,-2 141,-6 144,-15zM478,258l-3,-63l-97,-3l-98,-3l26,26c28,28 29,62 3,78c-12,8 -30,5 -67,-11c-28,-12 -53,-22 -56,-22c-3,0 -6,14 -6,30v30h150h151zM227,143c-9,-9 -20,-14 -24,-10c-3,4 2,14 13,21c25,19 33,10 11,-11zM290,145c0,-15 -6,-25 -14,-25c-19,0 -28,14 -20,34c10,25 34,19 34,-9zM350,162c0,-10 -22,-32 -32,-32c-4,0 -8,9 -8,20c0,13 7,20 20,20c11,0 20,-4 20,-8z"></path></g></g></g></svg>