<svg version="1.1" xmlns="http://www.w3.org/2000/svg" xmlns:xlink="http://www.w3.org/1999/xlink" width="50.000000pt" height="50.000000pt" viewBox="0,0,256,256"><g fill="#98205e" fill-rule="nonzero" stroke="none" stroke-width="1" stroke-linecap="butt" stroke-linejoin="miter" stroke-miterlimit="10" stroke-dasharray="" stroke-dashoffset="0" font-family="none" font-weight="none" font-size="none" text-anchor="none" style="mix-blend-mode: normal"><g transform="translate(-4.30997,-0.06804) scale(5.12,5.12)"><g transform="translate(0,50) scale(0.1,-0.1)"><path d="M145,485c-22,-8 -54,-30 -72,-49c-63,-68 -68,-170 -14,-272c24,-43 31,-70 31,-110c0,-30 5,-54 10,-54c24,0 10,103 -25,180c-19,43 -35,94 -35,114c0,66 47,147 95,166c69,26 65,29 65,-54c0,-67 -3,-78 -25,-100c-33,-34 -33,-79 1,-113c22,-22 31,-25 72,-20c51,7 77,-5 83,-38c3,-14 12,-20 29,-20c20,0 25,5 25,25c0,17 -6,26 -20,28c-11,2 -30,8 -42,14c-19,10 -21,16 -16,54c5,37 2,46 -21,69c-23,23 -26,33 -26,101v74l28,-6c67,-16 112,-63 127,-132c4,-18 18,-53 32,-77l25,-45l-26,-11c-22,-10 -26,-19 -26,-56c0,-54 -26,-83 -75,-83c-33,0 -35,-2 -35,-35c0,-19 5,-35 10,-35c6,0 10,11 10,25c0,18 5,25 20,25c52,0 90,41 90,98c0,17 10,34 28,48l27,23l-27,48c-14,26 -31,67 -37,90c-31,114 -160,172 -286,128zM240,405c0,-43 -4,-75 -10,-75c-6,0 -10,32 -10,75c0,43 4,75 10,75c6,0 10,-32 10,-75zM270,290c11,-11 20,-29 20,-40c0,-26 -34,-60 -60,-60c-26,0 -60,34 -60,60c0,11 9,29 20,40c11,11 29,20 40,20c11,0 29,-9 40,-20zM370,140c0,-5 -4,-10 -10,-10c-5,0 -10,5 -10,10c0,6 5,10 10,10c6,0 10,-4 10,-10z"></path><path d="M200,275c-26,-32 13,-81 48,-59c22,14 27,41 12,59c-16,19 -44,19 -60,0zM246,259c10,-17 -13,-36 -27,-22c-12,12 -4,33 11,33c5,0 12,-5 16,-11z"></path></g></g></g></svg>